<?xml version="1.0" encoding="UTF-8"?>
<!DOCTYPE svg PUBLIC "-//W3C//DTD SVG 1.1//EN" "http://www.w3.org/Graphics/SVG/1.1/DTD/svg11.dtd">
<!-- Creator: CorelDRAW 2018 (64-Bit) -->
<svg xmlns="http://www.w3.org/2000/svg" xml:space="preserve" width="109.855mm" height="146.473mm" version="1.1" style="shape-rendering:geometricPrecision; text-rendering:geometricPrecision; image-rendering:optimizeQuality; fill-rule:evenodd; clip-rule:evenodd"
viewBox="0 0 1299.76 1733.01"
 xmlns:xlink="http://www.w3.org/1999/xlink"
 xmlns:svgjs="http://svgjs.com/svgjs">
 <defs>
  <style type="text/css">
   <![CDATA[
    .fil0 {fill:#003399}
   ]]>
  </style>
 </defs>
 <g id="Слой_x0020_1">
  <metadata id="CorelCorpID_0Corel-Layer"/>
  <g id="_2511292971600">
   <g>
    <g>
     <g>
      <path class="fil0" d="M649.88 0c-358.41,0 -649.88,291.47 -649.88,649.88 0,450.48 586.62,1042.3 611.54,1067.32 10.62,10.51 24.48,15.81 38.34,15.81 13.86,0 27.73,-5.31 38.34,-15.81 24.91,-25.02 611.54,-616.84 611.54,-1067.32 0,-358.41 -291.47,-649.88 -649.88,-649.88zm0 1600.54c-129.32,-138.42 -541.57,-606.55 -541.57,-950.67 0,-298.62 242.95,-541.57 541.57,-541.57 298.62,0 541.57,242.95 541.57,541.57 0,343.79 -412.24,812.24 -541.57,950.67z" data-original="#000000"/>
     </g>
    </g>
    <g>
     <g>
      <path class="fil0" d="M649.88 324.94c-179.15,0 -324.94,145.79 -324.94,324.94 0,179.15 145.79,324.94 324.94,324.94 179.15,0 324.94,-145.79 324.94,-324.94 0,-179.15 -145.79,-324.94 -324.94,-324.94zm0 541.57c-119.47,0 -216.63,-97.16 -216.63,-216.63 0,-119.47 97.16,-216.63 216.63,-216.63 119.47,0 216.63,97.16 216.63,216.63 0,119.47 -97.16,216.63 -216.63,216.63z" data-original="#000000"/>
     </g>
    </g>
    <g>
    </g>
    <g>
    </g>
    <g>
    </g>
    <g>
    </g>
    <g>
    </g>
    <g>
    </g>
    <g>
    </g>
    <g>
    </g>
    <g>
    </g>
    <g>
    </g>
    <g>
    </g>
    <g>
    </g>
    <g>
    </g>
    <g>
    </g>
    <g>
    </g>
   </g>
  </g>
 </g>
</svg>
