<?xml version="1.0" encoding="UTF-8"?>
<!DOCTYPE svg PUBLIC "-//W3C//DTD SVG 1.1//EN" "http://www.w3.org/Graphics/SVG/1.1/DTD/svg11.dtd">
<!-- Creator: CorelDRAW 2018 (64-Bit) -->
<svg xmlns="http://www.w3.org/2000/svg" xml:space="preserve" width="135.467mm" height="101.6mm" version="1.1" style="shape-rendering:geometricPrecision; text-rendering:geometricPrecision; image-rendering:optimizeQuality; fill-rule:evenodd; clip-rule:evenodd"
viewBox="0 0 2794.57 2095.93"
 xmlns:xlink="http://www.w3.org/1999/xlink"
 enable-background="new 0 0 479.058 479.058">
 <defs>
  <style type="text/css">
   <![CDATA[
    .fil0 {fill:#003399}
   ]]>
  </style>
 </defs>
 <g id="Слой_x0020_1">
  <metadata id="CorelCorpID_0Corel-Layer"/>
  <g id="_2511161633536">
   <path class="fil0" d="M2532.57 0l-2270.58 0c-144.47,0 -261.99,117.52 -261.99,261.99l0 1571.94c0,144.47 117.52,261.99 261.99,261.99l2270.58 0c144.47,0 261.99,-117.52 261.99,-261.99l0 -1571.94c0,-144.47 -117.52,-261.99 -261.99,-261.99zm0 174.66c11.87,0 23.15,2.46 33.47,6.76l-1168.76 1012.98 -1168.77 -1012.98c10.32,-4.29 21.61,-6.76 33.47,-6.76l2270.59 0zm0 1746.6l-2270.58 0c-48.18,0 -87.33,-39.14 -87.33,-87.33l0 -1467.98 1165.4 1010.01c16.46,14.24 36.84,21.32 57.23,21.32 20.38,0 40.76,-7.08 57.23,-21.32l1165.4 -1010.01 0 1467.99c-0.01,48.18 -39.15,87.33 -87.33,87.33z"/>
  </g>
 </g>
</svg>
